<svg xmlns="http://www.w3.org/2000/svg" viewBox="0 0 512 512">
  <defs>
    <linearGradient id="bg" x1="0" y1="0" x2="1" y2="1">
      <stop offset="0%" stop-color="#2563eb" />
      <stop offset="100%" stop-color="#1d4ed8" />
    </linearGradient>
    <linearGradient id="book" x1="0" y1="0" x2="1" y2="1">
      <stop offset="0%" stop-color="#ffffff" />
      <stop offset="100%" stop-color="#dbeafe" />
    </linearGradient>
  </defs>

  <rect x="24" y="24" width="464" height="464" rx="112" fill="url(#bg)" />

  <path
    d="M120 164c0-22 18-40 40-40h84c32 0 63 11 88 31v193c-25-20-56-31-88-31h-84c-22 0-40 18-40 40V164z"
    fill="url(#book)"
    opacity="0.98"
  />
  <path
    d="M392 164c0-22-18-40-40-40h-84c-32 0-63 11-88 31v193c25-20 56-31 88-31h84c22 0 40 18 40 40V164z"
    fill="url(#book)"
    opacity="0.92"
  />

  <rect x="246" y="124" width="20" height="236" rx="10" fill="#93c5fd" />
  <circle cx="330" cy="110" r="30" fill="#f8fafc" />
  <path
    d="M330 95l4 10 10 4-10 4-4 10-4-10-10-4 10-4z"
    fill="#1d4ed8"
  />
</svg>
